<mxfile host="65bd71144e">
    <diagram id="TjcvV9DxuvP_p9zlm8VE" name="ページ1">
        <mxGraphModel dx="353" dy="1234" grid="1" gridSize="10" guides="1" tooltips="1" connect="1" arrows="1" fold="1" page="1" pageScale="1" pageWidth="827" pageHeight="1169" math="0" shadow="0">
            <root>
                <mxCell id="0"/>
                <mxCell id="1" parent="0"/>
                <mxCell id="23" value="" style="endArrow=none;html=1;" edge="1" parent="1">
                    <mxGeometry width="50" height="50" relative="1" as="geometry">
                        <mxPoint x="1200" y="390" as="sourcePoint"/>
                        <mxPoint x="1200.0000000000002" y="320" as="targetPoint"/>
                    </mxGeometry>
                </mxCell>
                <mxCell id="4" value="" style="endArrow=none;html=1;" edge="1" parent="1">
                    <mxGeometry width="50" height="50" relative="1" as="geometry">
                        <mxPoint x="960" y="200" as="sourcePoint"/>
                        <mxPoint x="960" y="80" as="targetPoint"/>
                    </mxGeometry>
                </mxCell>
                <mxCell id="6" value="ルーター&lt;br&gt;YAMAHA&lt;br&gt;RTX1200" style="rounded=1;whiteSpace=wrap;html=1;" vertex="1" parent="1">
                    <mxGeometry x="900" y="200" width="120" height="60" as="geometry"/>
                </mxCell>
                <mxCell id="7" value="100Mbps&lt;br&gt;全二重" style="text;html=1;strokeColor=none;fillColor=none;align=center;verticalAlign=middle;whiteSpace=wrap;rounded=0;" vertex="1" parent="1">
                    <mxGeometry x="890" y="140" width="60" height="30" as="geometry"/>
                </mxCell>
                <mxCell id="8" value="LAN 配下はすべて&lt;br&gt;1000Mbps&lt;br&gt;全二重" style="text;html=1;strokeColor=none;fillColor=none;align=center;verticalAlign=middle;whiteSpace=wrap;rounded=0;" vertex="1" parent="1">
                    <mxGeometry x="840" y="300" width="110" height="30" as="geometry"/>
                </mxCell>
                <mxCell id="9" value="" style="endArrow=none;html=1;" edge="1" parent="1">
                    <mxGeometry width="50" height="50" relative="1" as="geometry">
                        <mxPoint x="959.57" y="380" as="sourcePoint"/>
                        <mxPoint x="959.57" y="260" as="targetPoint"/>
                    </mxGeometry>
                </mxCell>
                <mxCell id="10" value="" style="endArrow=none;html=1;" edge="1" parent="1">
                    <mxGeometry width="50" height="50" relative="1" as="geometry">
                        <mxPoint x="1390" y="320" as="sourcePoint"/>
                        <mxPoint x="959.5700000000002" y="320" as="targetPoint"/>
                    </mxGeometry>
                </mxCell>
                <mxCell id="11" value="" style="rounded=1;whiteSpace=wrap;html=1;" vertex="1" parent="1">
                    <mxGeometry x="870" y="380" width="190" height="320" as="geometry"/>
                </mxCell>
                <mxCell id="12" value="メインサーバー &quot;sandy&quot;" style="text;html=1;strokeColor=none;fillColor=none;align=center;verticalAlign=middle;whiteSpace=wrap;rounded=0;" vertex="1" parent="1">
                    <mxGeometry x="881.75" y="400" width="166.5" height="30" as="geometry"/>
                </mxCell>
                <mxCell id="14" value="Docker コンテナ群&lt;br&gt;&lt;a href=&quot;https://github.com/yudejp/docker-sandy&quot;&gt;github.com/yudejp/docker-sandy&lt;/a&gt;" style="rounded=0;whiteSpace=wrap;html=1;" vertex="1" parent="1">
                    <mxGeometry x="881.75" y="430" width="168.25" height="110" as="geometry"/>
                </mxCell>
                <mxCell id="15" value="Tailscale" style="rounded=0;whiteSpace=wrap;html=1;" vertex="1" parent="1">
                    <mxGeometry x="881.75" y="560" width="168.25" height="110" as="geometry"/>
                </mxCell>
                <mxCell id="18" value="" style="endArrow=none;html=1;entryX=0.514;entryY=0.833;entryDx=0;entryDy=0;entryPerimeter=0;" edge="1" parent="1" target="5">
                    <mxGeometry width="50" height="50" relative="1" as="geometry">
                        <mxPoint x="1048.25" y="615" as="sourcePoint"/>
                        <mxPoint x="1080" y="130" as="targetPoint"/>
                        <Array as="points">
                            <mxPoint x="1080" y="615"/>
                        </Array>
                    </mxGeometry>
                </mxCell>
                <mxCell id="5" value="インターネット" style="rounded=1;whiteSpace=wrap;html=1;" vertex="1" parent="1">
                    <mxGeometry x="890" y="50" width="370" height="60" as="geometry"/>
                </mxCell>
                <mxCell id="19" value="" style="rounded=1;whiteSpace=wrap;html=1;" vertex="1" parent="1">
                    <mxGeometry x="1100" y="380" width="190" height="320" as="geometry"/>
                </mxCell>
                <mxCell id="20" value="サブサーバー &quot;pi&quot;" style="text;html=1;strokeColor=none;fillColor=none;align=center;verticalAlign=middle;whiteSpace=wrap;rounded=0;" vertex="1" parent="1">
                    <mxGeometry x="1111.75" y="400" width="166.5" height="30" as="geometry"/>
                </mxCell>
                <mxCell id="21" value="Docker コンテナ群&lt;br&gt;(private)" style="rounded=0;whiteSpace=wrap;html=1;" vertex="1" parent="1">
                    <mxGeometry x="1110" y="430" width="168.25" height="110" as="geometry"/>
                </mxCell>
                <mxCell id="22" value="Tailscale" style="rounded=0;whiteSpace=wrap;html=1;" vertex="1" parent="1">
                    <mxGeometry x="1110" y="560" width="168.25" height="110" as="geometry"/>
                </mxCell>
                <mxCell id="109" value="" style="endArrow=none;html=1;" edge="1" parent="1">
                    <mxGeometry width="50" height="50" relative="1" as="geometry">
                        <mxPoint x="1200" y="330" as="sourcePoint"/>
                        <mxPoint x="1200.0000000000002" y="260" as="targetPoint"/>
                    </mxGeometry>
                </mxCell>
                <mxCell id="110" value="Schneider Electric&lt;br&gt;UPS Network Management &lt;br&gt;Card 2" style="rounded=1;whiteSpace=wrap;html=1;" vertex="1" parent="1">
                    <mxGeometry x="1111.75" y="200" width="178.25" height="60" as="geometry"/>
                </mxCell>
                <mxCell id="112" value="" style="endArrow=none;html=1;" edge="1" parent="1">
                    <mxGeometry width="50" height="50" relative="1" as="geometry">
                        <mxPoint x="1389.69" y="320" as="sourcePoint"/>
                        <mxPoint x="1389.6900000000003" y="250" as="targetPoint"/>
                    </mxGeometry>
                </mxCell>
                <mxCell id="113" value="Wi-Fi AP&lt;br&gt;TP-LInk&lt;br&gt;AX1500 Wi-Fi 6 Router" style="rounded=1;whiteSpace=wrap;html=1;" vertex="1" parent="1">
                    <mxGeometry x="1300" y="200" width="178.25" height="60" as="geometry"/>
                </mxCell>
            </root>
        </mxGraphModel>
    </diagram>
</mxfile>